<svg xmlns="http://www.w3.org/2000/svg" width="24" height="24" fill="black" viewBox="0 0 24 24">
  <path d="M12 2C6.48 2 2 6.58 2 12.26c0 4.5 2.87 8.31 6.84 9.66.5.1.68-.22.68-.48v-1.68c-2.78.61-3.37-1.4-3.37-1.4-.45-1.17-1.11-1.48-1.11-1.48-.91-.63.07-.62.07-.62 1 .08 1.53 1.05 1.53 1.05.9 1.58 2.35 1.12 2.92.85.09-.67.35-1.12.63-1.38-2.22-.26-4.55-1.13-4.55-5 0-1.11.39-2.02 1.03-2.73-.1-.26-.45-1.3.1-2.71 0 0 .84-.27 2.75 1.04A9.38 9.38 0 0 1 12 6.8c.85.01 1.7.12 2.5.34 1.9-1.31 2.74-1.04 2.74-1.04.55 1.41.2 2.45.1 2.71.64.71 1.03 1.62 1.03 2.73 0 3.88-2.33 4.74-4.55 5.01.36.32.68.94.68 1.9v2.81c0 .27.18.58.69.48A10.29 10.29 0 0 0 22 12.26C22 6.58 17.52 2 12 2Z"/>
</svg>
